<svg width="32" height="32" viewBox="0 0 32 32" fill="none" xmlns="http://www.w3.org/2000/svg">
<path d="M31.085 4.37469C30.6143 3.90313 29.8504 3.90231 29.3797 4.37269L14.9114 18.8028L9.69126 13.1333C9.24019 12.6436 8.47757 12.6119 7.98713 13.0629C7.49707 13.5139 7.46569 14.2769 7.91676 14.767L13.9871 21.3596C14.2094 21.6012 14.5206 21.7415 14.8486 21.7483C14.8574 21.7487 14.8659 21.7487 14.8744 21.7487C15.1932 21.7487 15.4999 21.6221 15.7258 21.3969L31.0826 6.08038C31.5546 5.61006 31.5554 4.84625 31.085 4.37469Z" fill="#FF5A5F"/>
<path d="M30.7939 14.7939C30.1278 14.7939 29.5879 15.3338 29.5879 16C29.5879 23.4927 23.4927 29.5879 16 29.5879C8.50775 29.5879 2.41206 23.4927 2.41206 16C2.41206 8.50775 8.50775 2.41206 16 2.41206C16.6661 2.41206 17.2061 1.87219 17.2061 1.20606C17.2061 0.539875 16.6661 0 16 0C7.1775 0 0 7.1775 0 16C0 24.8221 7.1775 32 16 32C24.8221 32 32 24.8221 32 16C32 15.3339 31.4601 14.7939 30.7939 14.7939Z" fill="#454E9E"/>
</svg>
