<svg width="204" height="204" viewBox="0 0 204 204" fill="none" xmlns="http://www.w3.org/2000/svg">
<path d="M172.125 169.137V34.8633C172.125 24.3047 166.038 15.1725 157.184 10.771C160.785 8.98078 164.842 7.96875 169.137 7.96875C183.99 7.96875 196.031 20.0099 196.031 34.8633V169.137C196.031 183.99 183.99 196.031 169.137 196.031H145.23C160.084 196.031 172.125 183.99 172.125 169.137Z" fill="#CEE1F2"/>
<path d="M7.96875 44.625H110.367C114.768 44.625 118.336 41.0574 118.336 36.6562C118.336 32.2551 114.768 28.6875 110.367 28.6875H7.96875C3.56761 28.6875 0 32.2551 0 36.6562C0 41.0574 3.56761 44.625 7.96875 44.625ZM0 68.5312C0 64.1301 3.56761 60.5625 7.96875 60.5625H28.2891C32.6902 60.5625 36.2578 64.1301 36.2578 68.5312C36.2578 72.9324 32.6902 76.5 28.2891 76.5H7.96875C3.56761 76.5 0 72.9324 0 68.5312ZM0 100.406C0 96.0051 3.56761 92.4375 7.96875 92.4375H28.2891C32.6902 92.4375 36.2578 96.0051 36.2578 100.406C36.2578 104.807 32.6902 108.375 28.2891 108.375H7.96875C3.56761 108.375 0 104.807 0 100.406ZM0 196.031C0 191.63 3.56761 188.062 7.96875 188.062H169.137C179.572 188.062 188.062 179.572 188.062 169.137V34.8633C188.062 24.4278 179.572 15.9375 169.137 15.9375C158.701 15.9375 150.211 24.4278 150.211 34.8633V117.938C150.211 122.339 146.643 125.906 142.242 125.906C137.841 125.906 134.273 122.339 134.273 117.938V34.8633C134.273 15.6395 149.913 0 169.137 0C188.361 0 204 15.6395 204 34.8633V169.137C204 188.361 188.361 204 169.137 204H7.96875C3.56761 204 0 200.432 0 196.031ZM134.273 168.539C134.273 150.882 146.758 136.497 163.96 134.336C168.324 133.787 172.311 136.882 172.86 141.249C173.408 145.615 170.313 149.6 165.946 150.149C156.682 151.313 150.211 158.875 150.211 168.539C150.211 172.94 146.643 176.508 142.242 176.508C137.841 176.508 134.273 172.94 134.273 168.539Z" fill="#FF5A5F"/>
<path d="M7.96875 140.25H28.2891C32.6902 140.25 36.2578 136.682 36.2578 132.281C36.2578 127.88 32.6902 124.312 28.2891 124.312H7.96875C3.56761 124.312 0 127.88 0 132.281C0 136.682 3.56761 140.25 7.96875 140.25ZM0 164.156C0 159.755 3.56761 156.188 7.96875 156.188H28.2891C32.6902 156.188 36.2578 159.755 36.2578 164.156C36.2578 168.557 32.6902 172.125 28.2891 172.125H7.96875C3.56761 172.125 0 168.557 0 164.156Z" fill="#13070C"/>
</svg>
